<?xml version="1.0" standalone="no"?>
<!DOCTYPE svg PUBLIC "-//W3C//DTD SVG 20010904//EN"
 "http://www.w3.org/TR/2001/REC-SVG-20010904/DTD/svg10.dtd">
<svg version="1.0" xmlns="http://www.w3.org/2000/svg"
 width="260.000000pt" height="260.000000pt" viewBox="0 0 260.000000 260.000000"
 preserveAspectRatio="xMidYMid meet">
<metadata>
Created by potrace 1.14, written by Peter Selinger 2001-2017
</metadata>
<g transform="translate(0.000000,260.000000) scale(0.100000,-0.100000)"
fill="#000000" stroke="none">
<path d="M1043 2579 c-525 -110 -916 -503 -1023 -1029 -28 -137 -28 -363 0
-500 51 -252 160 -464 332 -646 189 -199 423 -328 698 -384 137 -28 363 -28
500 0 460 94 826 409 979 843 52 148 71 265 71 437 0 172 -19 289 -71 437
-153 434 -519 749 -979 843 -134 27 -375 27 -507 -1z m117 -1279 l0 -570 -143
0 c-234 0 -361 45 -488 171 -102 101 -169 259 -169 399 0 123 61 282 145 377
77 87 203 159 320 183 22 4 106 8 188 9 l147 1 0 -570z m582 238 l167 -333 0
333 1 333 118 -3 117 -3 3 -567 2 -568 -120 0 -120 0 -164 328 -165 327 0
-327 -1 -328 -120 0 -120 0 0 570 0 570 118 0 117 0 167 -332z"/>
<path d="M813 1659 c-74 -23 -134 -67 -185 -134 -52 -69 -72 -133 -72 -230 0
-69 5 -90 31 -147 55 -117 154 -194 278 -217 32 -6 60 -11 62 -11 2 0 3 171 3
380 l0 380 -27 -1 c-16 0 -56 -9 -90 -20z"/>
</g>
</svg>
